<mxfile host="Electron" agent="Mozilla/5.0 (Windows NT 10.0; Win64; x64) AppleWebKit/537.36 (KHTML, like Gecko) draw.io/26.0.16 Chrome/132.0.6834.196 Electron/34.2.0 Safari/537.36" version="26.0.16">
  <diagram name="第 1 页" id="lXWRzKEfLEj6Xw0j6gxJ">
    <mxGraphModel dx="1434" dy="844" grid="1" gridSize="10" guides="1" tooltips="1" connect="1" arrows="1" fold="1" page="1" pageScale="1" pageWidth="827" pageHeight="1169" math="0" shadow="0">
      <root>
        <mxCell id="0" />
        <mxCell id="1" parent="0" />
        <mxCell id="qXtWQHnOSX72sUccIHZP-3" style="edgeStyle=orthogonalEdgeStyle;rounded=0;orthogonalLoop=1;jettySize=auto;html=1;exitX=0.5;exitY=1;exitDx=0;exitDy=0;" parent="1" source="qXtWQHnOSX72sUccIHZP-1" target="qXtWQHnOSX72sUccIHZP-2" edge="1">
          <mxGeometry relative="1" as="geometry" />
        </mxCell>
        <mxCell id="qXtWQHnOSX72sUccIHZP-4" value="RPC/HTTP" style="edgeLabel;html=1;align=center;verticalAlign=middle;resizable=0;points=[];" parent="qXtWQHnOSX72sUccIHZP-3" vertex="1" connectable="0">
          <mxGeometry x="-0.08" relative="1" as="geometry">
            <mxPoint as="offset" />
          </mxGeometry>
        </mxCell>
        <mxCell id="qXtWQHnOSX72sUccIHZP-1" value="业务系统" style="rounded=1;whiteSpace=wrap;html=1;fillColor=#f5f5f5;fontColor=#333333;strokeColor=#666666;" parent="1" vertex="1">
          <mxGeometry x="370" y="140" width="120" height="60" as="geometry" />
        </mxCell>
        <mxCell id="qXtWQHnOSX72sUccIHZP-15" style="edgeStyle=orthogonalEdgeStyle;rounded=0;orthogonalLoop=1;jettySize=auto;html=1;exitX=0.5;exitY=1;exitDx=0;exitDy=0;entryX=0.5;entryY=0;entryDx=0;entryDy=0;" parent="1" source="qXtWQHnOSX72sUccIHZP-2" target="qXtWQHnOSX72sUccIHZP-18" edge="1">
          <mxGeometry relative="1" as="geometry">
            <mxPoint x="430" y="420" as="targetPoint" />
          </mxGeometry>
        </mxCell>
        <mxCell id="qXtWQHnOSX72sUccIHZP-20" value="匹配规则" style="edgeLabel;html=1;align=center;verticalAlign=middle;resizable=0;points=[];" parent="qXtWQHnOSX72sUccIHZP-15" vertex="1" connectable="0">
          <mxGeometry x="0.06" y="1" relative="1" as="geometry">
            <mxPoint as="offset" />
          </mxGeometry>
        </mxCell>
        <mxCell id="qXtWQHnOSX72sUccIHZP-2" value="限额限次&lt;div&gt;（实时）&lt;/div&gt;" style="rounded=0;whiteSpace=wrap;html=1;fillColor=#dae8fc;strokeColor=#6c8ebf;" parent="1" vertex="1">
          <mxGeometry x="370" y="300" width="120" height="60" as="geometry" />
        </mxCell>
        <mxCell id="qXtWQHnOSX72sUccIHZP-6" style="edgeStyle=orthogonalEdgeStyle;rounded=0;orthogonalLoop=1;jettySize=auto;html=1;exitX=1;exitY=0.5;exitDx=0;exitDy=0;exitPerimeter=0;entryX=0;entryY=0.5;entryDx=0;entryDy=0;" parent="1" source="qXtWQHnOSX72sUccIHZP-5" target="qXtWQHnOSX72sUccIHZP-2" edge="1">
          <mxGeometry relative="1" as="geometry" />
        </mxCell>
        <mxCell id="qXtWQHnOSX72sUccIHZP-7" value="加载" style="edgeLabel;html=1;align=center;verticalAlign=middle;resizable=0;points=[];" parent="qXtWQHnOSX72sUccIHZP-6" vertex="1" connectable="0">
          <mxGeometry x="-0.02" y="-2" relative="1" as="geometry">
            <mxPoint as="offset" />
          </mxGeometry>
        </mxCell>
        <mxCell id="qXtWQHnOSX72sUccIHZP-5" value="mysql 配置" style="shape=cylinder3;whiteSpace=wrap;html=1;boundedLbl=1;backgroundOutline=1;size=15;" parent="1" vertex="1">
          <mxGeometry x="120" y="290" width="60" height="80" as="geometry" />
        </mxCell>
        <mxCell id="qXtWQHnOSX72sUccIHZP-8" value="限额限次&lt;div&gt;（控台）&lt;/div&gt;" style="rounded=0;whiteSpace=wrap;html=1;fillColor=#dae8fc;strokeColor=#6c8ebf;" parent="1" vertex="1">
          <mxGeometry x="90" y="140" width="120" height="60" as="geometry" />
        </mxCell>
        <mxCell id="qXtWQHnOSX72sUccIHZP-9" style="edgeStyle=orthogonalEdgeStyle;rounded=0;orthogonalLoop=1;jettySize=auto;html=1;exitX=0.5;exitY=1;exitDx=0;exitDy=0;entryX=0.5;entryY=0;entryDx=0;entryDy=0;entryPerimeter=0;" parent="1" source="qXtWQHnOSX72sUccIHZP-8" target="qXtWQHnOSX72sUccIHZP-5" edge="1">
          <mxGeometry relative="1" as="geometry" />
        </mxCell>
        <mxCell id="qXtWQHnOSX72sUccIHZP-10" value="变更" style="edgeLabel;html=1;align=center;verticalAlign=middle;resizable=0;points=[];" parent="qXtWQHnOSX72sUccIHZP-9" vertex="1" connectable="0">
          <mxGeometry x="-0.0667" relative="1" as="geometry">
            <mxPoint as="offset" />
          </mxGeometry>
        </mxCell>
        <mxCell id="qXtWQHnOSX72sUccIHZP-16" style="edgeStyle=orthogonalEdgeStyle;rounded=0;orthogonalLoop=1;jettySize=auto;html=1;exitX=0.5;exitY=1;exitDx=0;exitDy=0;exitPerimeter=0;entryX=1;entryY=0.5;entryDx=0;entryDy=0;" parent="1" source="qXtWQHnOSX72sUccIHZP-11" target="qXtWQHnOSX72sUccIHZP-18" edge="1">
          <mxGeometry relative="1" as="geometry">
            <mxPoint x="510" y="490" as="targetPoint" />
            <Array as="points">
              <mxPoint x="685" y="490" />
            </Array>
          </mxGeometry>
        </mxCell>
        <mxCell id="qXtWQHnOSX72sUccIHZP-17" value="读取历史数据" style="edgeLabel;html=1;align=center;verticalAlign=middle;resizable=0;points=[];" parent="qXtWQHnOSX72sUccIHZP-16" vertex="1" connectable="0">
          <mxGeometry x="0.1869" y="1" relative="1" as="geometry">
            <mxPoint as="offset" />
          </mxGeometry>
        </mxCell>
        <mxCell id="qXtWQHnOSX72sUccIHZP-11" value="分布式数据库" style="shape=cylinder3;whiteSpace=wrap;html=1;boundedLbl=1;backgroundOutline=1;size=15;" parent="1" vertex="1">
          <mxGeometry x="630" y="290" width="110" height="80" as="geometry" />
        </mxCell>
        <mxCell id="qXtWQHnOSX72sUccIHZP-12" style="edgeStyle=orthogonalEdgeStyle;rounded=0;orthogonalLoop=1;jettySize=auto;html=1;exitX=1;exitY=0.5;exitDx=0;exitDy=0;entryX=0;entryY=0.5;entryDx=0;entryDy=0;entryPerimeter=0;" parent="1" source="qXtWQHnOSX72sUccIHZP-2" target="qXtWQHnOSX72sUccIHZP-11" edge="1">
          <mxGeometry relative="1" as="geometry" />
        </mxCell>
        <mxCell id="qXtWQHnOSX72sUccIHZP-13" value="信息落库" style="edgeLabel;html=1;align=center;verticalAlign=middle;resizable=0;points=[];" parent="qXtWQHnOSX72sUccIHZP-12" vertex="1" connectable="0">
          <mxGeometry x="-0.0714" y="2" relative="1" as="geometry">
            <mxPoint as="offset" />
          </mxGeometry>
        </mxCell>
        <mxCell id="qXtWQHnOSX72sUccIHZP-22" style="edgeStyle=orthogonalEdgeStyle;rounded=0;orthogonalLoop=1;jettySize=auto;html=1;exitX=0.5;exitY=1;exitDx=0;exitDy=0;entryX=0.5;entryY=0;entryDx=0;entryDy=0;" parent="1" source="qXtWQHnOSX72sUccIHZP-18" target="qXtWQHnOSX72sUccIHZP-21" edge="1">
          <mxGeometry relative="1" as="geometry" />
        </mxCell>
        <mxCell id="qXtWQHnOSX72sUccIHZP-18" value="规则判断" style="rounded=0;whiteSpace=wrap;html=1;fillColor=#fff2cc;strokeColor=#d6b656;" parent="1" vertex="1">
          <mxGeometry x="370" y="460" width="120" height="60" as="geometry" />
        </mxCell>
        <mxCell id="qXtWQHnOSX72sUccIHZP-21" value="返回结果" style="ellipse;whiteSpace=wrap;html=1;aspect=fixed;fillColor=#f5f5f5;fontColor=#333333;strokeColor=#666666;" parent="1" vertex="1">
          <mxGeometry x="405" y="600" width="50" height="50" as="geometry" />
        </mxCell>
      </root>
    </mxGraphModel>
  </diagram>
</mxfile>
